<?xml version="1.0" encoding="UTF-8"?>
<svg xmlns="http://www.w3.org/2000/svg" xmlns:xlink="http://www.w3.org/1999/xlink" width="123pt" height="30pt" viewBox="0 0 123 30" version="1.1">
<g id="surface1">
<path style="fill-rule:nonzero;fill:rgb(2.745098%,2.745098%,2.745098%);fill-opacity:1;stroke-width:1;stroke-linecap:butt;stroke-linejoin:miter;stroke:rgb(2.745098%,2.745098%,2.745098%);stroke-opacity:1;stroke-miterlimit:4;" d="M 5538.308727 241.71888 L 5550.004007 227.326458 L 5535.524137 215.70181 C 5427.853302 128.424688 5291.037086 76.390547 5141.411754 76.390547 C 5089.061451 76.390547 5038.010624 83.586758 4989.930027 95.395924 L 4962.64104 102.038581 L 4979.534223 124.549805 C 5030.956328 192.267995 5104.840798 294.86013 5193.205138 455.39099 L 5200.816352 469.229857 L 5215.853141 463.878828 C 5383.114214 402.803294 5483.359474 309.43707 5538.308727 241.71888 Z M 4898.966736 140.971927 L 4889.870407 129.16276 L 4876.318733 135.43638 C 4710.357136 212.380482 4584.308003 359.256992 4534.556652 538.977747 L 4528.244913 561.67349 L 4551.821114 562.411562 C 4643.341323 565.179336 4862.024501 560.935417 5104.469519 497.276628 L 5127.67444 491.187526 L 5115.97916 470.152448 C 5021.859999 304.086042 4942.777627 197.619023 4898.966736 140.971927 Z M 5617.948017 295.413685 L 5603.653785 278.622526 L 5589.545193 295.598203 C 5528.284201 368.85194 5422.098481 464.063346 5253.909212 528.829245 L 5234.788357 536.209974 L 5243.884686 554.477279 C 5280.270002 626.808424 5315.355843 704.121562 5347.471455 787.523802 L 5352.669357 801.547187 L 5367.520507 799.332969 C 5489.114294 781.065664 5601.611752 781.065664 5686.634584 787.70832 C 5707.426193 789.368984 5720.792228 791.214167 5736.200296 793.428385 C 5739.541805 793.98194 5742.883313 794.350977 5746.410461 794.904531 L 5765.345677 797.487786 L 5767.573349 778.482409 C 5769.986661 755.786667 5771.471776 732.53737 5771.471776 708.919036 C 5771.471776 550.417878 5712.995375 406.309141 5617.948017 295.413685 Z M 5169.07202 572.191029 L 5162.017724 558.53668 L 5147.352213 562.780599 C 4862.210141 642.123438 4611.225712 639.724701 4533.071537 636.587891 L 4515.064518 635.849818 L 4513.765043 653.748086 L 4513.579403 654.855195 C 4512.279928 672.199909 4510.980452 689.913659 4510.980452 708.734518 C 4510.980452 898.972812 4594.703808 1068.545065 4726.6934 1184.422513 L 4740.430714 1196.600716 L 4752.682912 1182.946367 C 4785.72672 1146.780794 4830.09453 1100.466719 4884.115586 1052.122943 L 4884.115586 1051.938424 C 4985.660322 960.232865 5116.164799 862.991758 5258.550196 820.552565 L 5277.856691 814.8325 L 5270.431116 795.827122 C 5238.686784 716.115247 5204.3435 641.569883 5169.07202 572.191029 Z M 5519.74479 858.378802 L 5519.559151 858.378802 C 5482.059998 860.223984 5442.333173 863.729831 5401.86379 869.080859 L 5379.587066 871.848633 L 5386.641362 893.252747 C 5420.613366 996.398438 5449.01619 1105.633229 5467.208848 1219.11194 L 5471.849833 1248.081302 L 5495.982951 1231.474661 C 5613.863951 1151.024714 5702.970849 1031.456901 5744.368428 890.85401 L 5750.680167 869.449896 L 5728.589082 867.051159 C 5674.753664 861.331094 5606.438376 855.241992 5519.74479 858.378802 Z M 5310.714859 901.556068 L 5304.960039 884.949427 L 5288.066856 889.931419 C 5163.13156 925.543437 5032.255804 1018.171589 4933.310019 1107.478411 C 4885.415062 1150.286641 4846.802073 1190.696133 4815.614659 1223.909414 L 4800.020952 1240.885091 L 4819.884364 1252.694258 C 4914.003525 1308.418763 5023.159475 1341.07849 5141.040475 1341.07849 C 5229.404815 1341.07849 5312.756892 1322.626667 5389.054673 1290.335977 L 5402.049429 1284.80043 L 5400.193036 1270.777044 C 5382.371656 1141.060729 5350.627324 1017.433516 5310.714859 901.556068 Z M 4437.281622 708.55 C 4437.281622 319.032018 4753.611109 1.845182 5141.226114 1.845182 C 5529.026759 1.845182 5845.356246 319.216536 5845.356246 708.55 C 5845.356246 1098.2525 5529.026759 1415.439336 5141.226114 1415.439336 C 4753.611109 1415.439336 4437.281622 1098.067982 4437.281622 708.55 Z M 4437.281622 708.55 " transform="matrix(0.0210421,0,0,0.02117,0.00118353,0)"/>
<path style="fill-rule:nonzero;fill:rgb(2.745098%,2.745098%,2.745098%);fill-opacity:1;stroke-width:1;stroke-linecap:butt;stroke-linejoin:miter;stroke:rgb(2.745098%,2.745098%,2.745098%);stroke-opacity:1;stroke-miterlimit:4;" d="M 1906.088808 1.291628 L 1924.467106 1.291628 L 1924.467106 0.922591 L 2504.775778 0.922591 C 2722.716398 0.922591 2900.558915 182.119492 2900.558915 404.27944 L 2900.558915 1013.743151 C 2900.558915 1235.718581 2722.716398 1416.915482 2505.147056 1416.915482 L 1906.088808 1416.915482 C 1687.962548 1416.915482 1509.748753 1236.087617 1509.748753 1014.481224 L 1509.748753 404.648477 C 1509.748753 182.488529 1687.962548 1.291628 1906.088808 1.291628 Z M 1582.890665 404.832995 L 1582.890665 1014.665742 C 1582.890665 1196.416198 1726.575537 1342.739154 1906.088808 1342.739154 L 2505.147056 1342.739154 C 2683.91777 1342.739154 2827.417003 1196.23168 2827.417003 1013.927669 L 2827.417003 404.648477 C 2827.417003 222.344466 2683.91777 75.836992 2504.775778 75.836992 L 1906.088808 75.836992 C 1726.761177 76.02151 1583.261943 222.344466 1582.890665 404.832995 Z M 2608.176907 262.015885 C 2608.176907 241.165326 2624.327532 224.743203 2644.747863 224.743203 C 2664.982554 224.743203 2681.133179 241.165326 2681.133179 262.015885 C 2681.133179 283.050964 2664.982554 299.473086 2644.747863 299.473086 C 2624.327532 299.473086 2608.176907 283.050964 2608.176907 262.015885 Z M 1839.629914 709.288073 C 1839.629914 504.28832 2004.477675 336.745768 2205.525113 336.745768 C 2406.75819 336.745768 2571.605951 504.28832 2571.605951 709.288073 C 2571.605951 914.103307 2406.75819 1081.645859 2205.525113 1081.645859 C 2004.477675 1081.645859 1839.629914 914.103307 1839.629914 709.288073 Z M 2498.464039 709.288073 C 2498.464039 543.95974 2368.145201 411.291133 2205.525113 411.291133 C 2042.905024 411.291133 1912.586186 543.95974 1912.586186 709.288073 C 1912.586186 874.431888 2042.905024 1007.285013 2205.525113 1007.285013 C 2368.145201 1007.100495 2498.464039 874.431888 2498.464039 709.288073 Z M 2498.464039 709.288073 " transform="matrix(0.0210421,0,0,0.02117,0.00118353,0)"/>
<path style="fill-rule:nonzero;fill:rgb(2.745098%,2.745098%,2.745098%);fill-opacity:1;stroke-width:0.5;stroke-linecap:butt;stroke-linejoin:miter;stroke:rgb(2.745098%,2.745098%,2.745098%);stroke-opacity:1;stroke-miterlimit:4;" d="M 4182.213127 2.214219 L 3158.412 2.214219 C 3042.573033 2.214219 2948.639512 96.133997 2948.639512 211.457891 L 2948.639512 1211.362174 C 2948.639512 1323.36474 3042.758673 1417.1 3158.412 1417.1 L 4178.685979 1417.1 C 4294.339307 1417.1 4388.458468 1323.180221 4388.458468 1211.362174 L 4388.458468 211.457891 C 4392.171255 95.949479 4298.052094 2.214219 4182.213127 2.214219 Z M 4305.29203 1211.362174 C 4305.29203 1279.818437 4250.899694 1334.066797 4182.213127 1334.066797 L 3158.412 1334.066797 C 3089.725433 1334.066797 3031.80595 1279.818437 3031.80595 1211.362174 L 3031.80595 211.457891 C 3031.80595 143.001628 3089.725433 88.753268 3158.412 88.753268 L 4178.685979 88.753268 C 4247.372546 88.753268 4305.29203 143.001628 4305.29203 211.457891 Z M 4305.29203 1211.362174 " transform="matrix(0.0210421,0,0,0.02117,0.00118353,0)"/>
<path style="fill-rule:nonzero;fill:rgb(2.745098%,2.745098%,2.745098%);fill-opacity:1;stroke-width:0.5;stroke-linecap:butt;stroke-linejoin:miter;stroke:rgb(2.745098%,2.745098%,2.745098%);stroke-opacity:1;stroke-miterlimit:4;" d="M 3632.349313 568.869701 C 3632.349313 474.949922 3556.237171 402.987812 3462.303649 402.987812 L 3205.378761 402.987812 L 3205.378761 987.541562 L 3462.303649 987.541562 C 3556.42281 987.541562 3632.349313 911.889089 3632.349313 821.659674 C 3632.349313 770.917161 3610.629506 727.739896 3574.429829 695.264687 C 3610.629506 662.789479 3632.349313 619.427695 3632.349313 568.869701 Z M 3545.470087 817.96931 C 3545.470087 864.83694 3505.743262 900.817995 3458.776501 900.817995 L 3288.730838 900.817995 L 3288.730838 734.936107 L 3458.776501 734.936107 C 3509.27041 734.936107 3545.470087 774.607526 3545.470087 817.96931 Z M 3288.545199 651.902904 L 3288.545199 485.836497 L 3458.590862 485.836497 C 3505.557623 485.836497 3545.470087 522.00207 3545.470087 568.869701 C 3545.470087 615.737331 3505.557623 651.902904 3458.590862 651.902904 Z M 3288.545199 651.902904 " transform="matrix(0.0210421,0,0,0.02117,0.00118353,0)"/>
<path style="fill-rule:nonzero;fill:rgb(2.745098%,2.745098%,2.745098%);fill-opacity:1;stroke-width:0.5;stroke-linecap:butt;stroke-linejoin:miter;stroke:rgb(2.745098%,2.745098%,2.745098%);stroke-opacity:1;stroke-miterlimit:4;" d="M 3929.001026 572.560065 C 3813.162059 572.560065 3719.228538 666.479844 3719.228538 778.113372 C 3719.228538 893.621784 3813.347699 983.851198 3929.001026 983.851198 C 4004.927529 983.851198 4073.614096 944.179779 4113.52656 879.229362 L 4041.127206 839.557943 C 4019.4074 879.229362 3975.967787 900.817995 3932.528174 900.817995 C 3878.321478 900.817995 3831.354717 864.83694 3813.162059 817.96931 L 4142.486302 817.96931 L 4142.486302 778.113372 C 4138.773515 666.479844 4044.654354 572.560065 3929.001026 572.560065 Z M 3809.634911 738.441953 C 3827.64193 691.574323 3874.608691 655.40875 3929.001026 655.40875 C 3983.207722 655.40875 4030.360122 691.574323 4048.367141 738.441953 Z M 3809.634911 738.441953 " transform="matrix(0.0210421,0,0,0.02117,0.00118353,0)"/>
<path style="fill-rule:nonzero;fill:rgb(2.745098%,2.745098%,2.745098%);fill-opacity:1;stroke-width:0.5;stroke-linecap:butt;stroke-linejoin:miter;stroke:rgb(2.745098%,2.745098%,2.745098%);stroke-opacity:1;stroke-miterlimit:4;" d="M 3758.955363 402.987812 L 4095.333902 402.987812 L 4095.333902 485.836497 L 3758.955363 485.836497 Z M 3758.955363 402.987812 " transform="matrix(0.0210421,0,0,0.02117,0.00118353,0)"/>
<path style="fill-rule:nonzero;fill:rgb(2.745098%,2.745098%,2.745098%);fill-opacity:1;stroke-width:0.5;stroke-linecap:butt;stroke-linejoin:miter;stroke:rgb(2.745098%,2.745098%,2.745098%);stroke-opacity:1;stroke-miterlimit:4;" d="M 1233.703009 -0.738073 L 211.386997 -0.738073 C 94.619833 -0.738073 -0.427524 92.443633 -0.427524 207.029453 L -0.427524 1210.070547 C -0.427524 1324.656367 94.619833 1417.838073 211.386997 1417.838073 L 1233.703009 1417.838073 C 1350.470173 1417.838073 1445.517531 1324.656367 1445.517531 1210.070547 L 1445.517531 207.029453 C 1445.517531 92.443633 1350.470173 -0.738073 1233.703009 -0.738073 Z M 1360.865978 1210.070547 C 1360.865978 1278.895846 1303.874691 1334.80487 1233.703009 1334.80487 L 211.386997 1334.80487 C 141.215315 1334.80487 84.224029 1278.895846 84.224029 1210.070547 L 84.224029 207.029453 C 84.224029 138.204154 141.215315 82.29513 211.386997 82.29513 L 1233.703009 82.29513 C 1303.874691 82.29513 1360.865978 138.204154 1360.865978 207.029453 Z M 1360.865978 1210.070547 " transform="matrix(0.0210421,0,0,0.02117,0.00118353,0)"/>
<path style=" stroke:none;fill-rule:nonzero;fill:rgb(0%,0%,0%);fill-opacity:1;" d="M 9.40625 6.980469 C 7.570312 8.101562 8.941406 10.796875 10.9375 9.984375 C 11.621094 9.714844 11.964844 9.210938 11.976562 8.457031 C 11.988281 7.472656 11.265625 6.734375 10.289062 6.734375 C 10.019531 6.734375 9.625 6.847656 9.40625 6.980469 Z M 9.40625 6.980469 "/>
<path style=" stroke:none;fill-rule:nonzero;fill:rgb(0%,0%,0%);fill-opacity:1;" d="M 18.671875 11.648438 C 18.21875 11.808594 17.828125 12.066406 17.484375 12.449219 L 16.957031 13.003906 L 16.957031 11.660156 L 13.773438 11.660156 L 13.773438 21.632812 L 16.957031 21.632812 L 16.957031 18.554688 C 16.957031 15.230469 17.007812 14.949219 17.605469 14.382812 C 18.035156 14 18.964844 13.886719 19.503906 14.171875 C 20.273438 14.566406 20.324219 14.8125 20.359375 18.394531 L 20.394531 21.632812 L 23.578125 21.632812 L 23.542969 17.902344 C 23.503906 14.296875 23.492188 14.160156 23.210938 13.542969 C 22.894531 12.816406 22.0625 11.980469 21.398438 11.710938 C 20.664062 11.390625 19.441406 11.363281 18.671875 11.648438 Z M 18.671875 11.648438 "/>
<path style=" stroke:none;fill-rule:nonzero;fill:rgb(0%,0%,0%);fill-opacity:1;" d="M 8.511719 16.648438 L 8.511719 21.632812 L 11.695312 21.632812 L 11.695312 11.660156 L 8.511719 11.660156 Z M 8.511719 16.648438 "/>
</g>
</svg>
