<?xml version="1.0" encoding="UTF-8"?>
<svg xmlns="http://www.w3.org/2000/svg" xmlns:xlink="http://www.w3.org/1999/xlink" width="18pt" height="31pt" viewBox="0 0 18 31" version="1.1">
<g id="surface1">
<path style=" stroke:none;fill-rule:nonzero;fill:rgb(2.745098%,2.745098%,2.745098%);fill-opacity:1;" d="M 7.929688 16.152344 C 8.171875 15.460938 9.203125 15.460938 9.4375 16.152344 L 10.871094 20.304688 C 10.953125 20.617188 11.265625 20.84375 11.582031 20.84375 L 16.191406 20.84375 C 16.984375 20.84375 17.308594 21.847656 16.667969 22.230469 L 12.933594 24.769531 C 12.617188 25 12.539062 25.308594 12.617188 25.613281 L 14.046875 29.769531 C 14.289062 30.460938 13.492188 31.074219 12.855469 30.617188 L 9.042969 28 C 8.804688 27.84375 8.40625 27.84375 8.089844 28 L 4.277344 30.617188 C 3.640625 31.074219 2.847656 30.460938 3.082031 29.769531 L 4.515625 25.613281 C 4.59375 25.308594 4.515625 24.921875 4.195312 24.769531 L 0.464844 22.230469 C -0.171875 21.769531 0.144531 20.84375 0.941406 20.84375 L 5.546875 20.84375 C 5.863281 20.84375 6.183594 20.617188 6.261719 20.304688 Z M 7.929688 16.152344 "/>
<path style=" stroke:none;fill-rule:nonzero;fill:rgb(89.803922%,89.803922%,89.803922%);fill-opacity:1;" d="M 7.929688 0.691406 C 8.171875 0 9.203125 0 9.4375 0.691406 L 10.871094 4.847656 C 10.953125 5.152344 11.265625 5.386719 11.667969 5.386719 L 16.269531 5.386719 C 17.066406 5.386719 17.386719 6.382812 16.75 6.765625 L 13.015625 9.308594 C 12.699219 9.539062 12.617188 9.847656 12.699219 10.15625 L 14.128906 14.308594 C 14.363281 15 13.570312 15.613281 12.933594 15.152344 L 9.121094 12.539062 C 8.882812 12.386719 8.488281 12.386719 8.171875 12.539062 L 4.351562 15.152344 C 3.722656 15.613281 2.925781 15 3.164062 14.308594 L 4.59375 10.15625 C 4.671875 9.847656 4.59375 9.460938 4.277344 9.308594 L 0.621094 6.765625 C -0.015625 6.382812 0.300781 5.386719 1.097656 5.386719 L 5.707031 5.386719 C 6.027344 5.386719 6.34375 5.152344 6.417969 4.847656 Z M 7.929688 0.691406 "/>
</g>
</svg>
