<?xml version="1.0" encoding="utf-8"?>
<!-- Generator: Adobe Illustrator 23.0.5, SVG Export Plug-In . SVG Version: 6.00 Build 0)  -->
<svg version="1.1" id="Слой_1" xmlns="http://www.w3.org/2000/svg" xmlns:xlink="http://www.w3.org/1999/xlink" x="0px" y="0px"
	 viewBox="0 0 91.1 88" style="enable-background:new 0 0 91.1 88;" xml:space="preserve">
<style type="text/css">
	.st0{fill:#D8A1FF;}
</style>
<path class="st0" d="M3.8,3.8h83.5v80.5H3.8V3.8z M0,88h91.1V0H0V88z M64.5,42.4c1.9,0,2.6,0,2.8-0.1c0-0.3,0.1-0.5,0.1-0.6
	c0-2-1-5.8-4.9-5.8c-3.6,0-5.2,3.2-5.6,6.5L64.5,42.4L64.5,42.4z M56.8,47.6c0.1,5.1,2.5,8.5,8.3,8.5c2.2,0,4.2-0.3,6.2-1.2
	c0.3-0.1,0.5-0.1,0.5,0.3v4.7c0,0.4-0.1,0.6-0.4,0.8c-2,1-4.5,1.4-7.6,1.4c-10,0-13.8-7.3-13.8-15.5c0-8.9,4.6-16.1,12.8-16.1
	c8.3,0,11.2,6.9,11.2,12.5c0,1.8-0.1,3.3-0.3,4c-0.1,0.3-0.2,0.4-0.5,0.5c-0.8,0.1-3,0.3-6.3,0.3h-9.9L56.8,47.6L56.8,47.6z
	 M36.4,43.8c-1.1-4.2-3.6-13.3-4.6-17.7h-0.1c-0.8,4.4-2.9,11.8-4.4,17.7H36.4z M25.7,49.8l-3,11.2c-0.1,0.3-0.2,0.4-0.6,0.4h-5.6
	c-0.4,0-0.5-0.1-0.4-0.6L27,23.6c0.2-0.7,0.3-1.2,0.4-3.1c0-0.3,0.1-0.4,0.3-0.4h8c0.3,0,0.4,0.1,0.5,0.4L48.2,61
	c0.1,0.3,0,0.5-0.3,0.5h-6.3c-0.3,0-0.5-0.1-0.6-0.4l-3.1-11.3H25.7z"/>
</svg>
