<?xml version="1.0" encoding="utf-8"?>
<!-- Generator: Adobe Illustrator 23.0.5, SVG Export Plug-In . SVG Version: 6.00 Build 0)  -->
<svg version="1.1" id="Слой_1" xmlns="http://www.w3.org/2000/svg" xmlns:xlink="http://www.w3.org/1999/xlink" x="0px" y="0px"
	 viewBox="0 0 91.1 88" style="enable-background:new 0 0 91.1 88;" xml:space="preserve">
<style type="text/css">
	.st0{fill:#FF7F18;}
</style>
<path class="st0" d="M3.8,3.8h83.5v80.5H3.8V3.8z M0,88h91.1V0H0V88z M59.7,31.4c0-0.3,0.1-0.5,0.5-0.5h6c0.3,0,0.5,0.1,0.5,0.5
	v29.7c0,0.3-0.1,0.5-0.5,0.5h-5.9c-0.4,0-0.5-0.2-0.5-0.5L59.7,31.4L59.7,31.4z M59.3,22.8c0-2.4,1.7-3.8,3.9-3.8
	c2.3,0,3.9,1.5,3.9,3.8c0,2.5-1.6,3.8-3.9,3.8C60.9,26.7,59.3,25.3,59.3,22.8z M42.2,43.8c-1.1-4.2-3.6-13.3-4.5-17.7h-0.1
	c-0.8,4.4-2.8,11.8-4.4,17.7H42.2z M31.6,49.8l-3,11.3c-0.1,0.3-0.2,0.4-0.6,0.4h-5.6c-0.4,0-0.5-0.1-0.4-0.6l10.8-37.4
	c0.2-0.7,0.3-1.3,0.4-3.1c0-0.3,0.1-0.4,0.3-0.4h8c0.3,0,0.4,0.1,0.5,0.4L54.1,61c0.1,0.3,0,0.5-0.3,0.5h-6.3
	c-0.3,0-0.5-0.1-0.6-0.3l-3.1-11.3H31.6z"/>
</svg>
