<?xml version="1.0" encoding="utf-8"?>
<!-- Generator: Adobe Illustrator 23.0.5, SVG Export Plug-In . SVG Version: 6.00 Build 0)  -->
<svg version="1.1" id="Слой_1" xmlns="http://www.w3.org/2000/svg" xmlns:xlink="http://www.w3.org/1999/xlink" x="0px" y="0px"
	 viewBox="0 0 92 88" style="enable-background:new 0 0 92 88;" xml:space="preserve">
<style type="text/css">
	.st0{fill:#31C5F0;}
</style>
<path class="st0" d="M3.8,3.8h84.3v80.5H3.8V3.8z M0,88h92V0H0V88z M62,36.1c-3,0-4.1,1.5-4.1,2.7c0,1.4,0.7,2.3,4.8,4.4
	c6,2.9,7.9,5.6,7.9,9.6c0,6-4.7,9.3-11,9.3c-3.3,0-6.2-0.7-7.9-1.6c-0.3-0.1-0.3-0.3-0.3-0.6v-5.6c0-0.4,0.2-0.5,0.5-0.3
	c2.4,1.5,5.2,2.2,7.7,2.2c3,0,4.3-1.2,4.3-2.9c0-1.4-0.9-2.5-4.8-4.5c-5.4-2.5-7.7-5.1-7.7-9.5c0-4.8,3.9-8.9,10.6-8.9
	c3.3,0,5.6,0.5,6.9,1c0.3,0.2,0.4,0.5,0.4,0.8v5.2c0,0.3-0.2,0.5-0.6,0.4C67,36.7,64.5,36.1,62,36.1z M29.1,40.6
	c0.9,0.1,1.6,0.1,3.1,0.1c4.5,0,8.7-1.5,8.7-7.5c0-4.8-3-7.2-8.1-7.2c-1.5,0-3,0.1-3.7,0.1L29.1,40.6z M22.2,20.6
	c0-0.3,0.5-0.5,0.8-0.5c2.5-0.1,6.1-0.2,9.9-0.2c10.6,0,14.8,5.7,14.8,13c0,9.5-7.1,13.7-15.7,13.7c-1.5,0-2-0.1-3-0.1V61
	c0,0.3-0.1,0.5-0.5,0.5h-5.9c-0.3,0-0.5-0.1-0.5-0.5V20.6z"/>
</svg>
