<svg width="22" height="20" viewBox="0 0 22 20" fill="none" xmlns="http://www.w3.org/2000/svg">
<path d="M9.73805 0.882554C10.0419 -0.0293057 11.3317 -0.0293055 11.6355 0.882554L13.4479 6.32215C13.584 6.73056 13.9662 7.00604 14.3966 7.00604H20.2072C21.182 7.00604 21.5807 8.25846 20.7854 8.822L16.1281 12.1217C15.7688 12.3763 15.6183 12.836 15.7575 13.2538L17.5465 18.6233C17.852 19.5402 16.8083 20.3141 16.0197 19.7554L11.2649 16.3865C10.9185 16.1411 10.455 16.1411 10.1087 16.3865L5.35386 19.7554C4.56526 20.3141 3.52151 19.5402 3.82702 18.6233L5.61608 13.2538C5.75529 12.836 5.6048 12.3763 5.24547 12.1217L0.588201 8.822C-0.207193 8.25846 0.191513 7.00604 1.16631 7.00604H6.97691C7.40739 7.00604 7.78956 6.73055 7.92563 6.32215L9.73805 0.882554Z" fill="#E5E5E5"/>
</svg>
