<svg width="22" height="20" viewBox="0 0 22 20" fill="none" xmlns="http://www.w3.org/2000/svg">
<path d="M9.8943 0.882554C10.1981 -0.0293057 11.4879 -0.0293055 11.7917 0.882554L13.6042 6.32215C13.7402 6.73056 14.1224 7.00604 14.5529 7.00604H20.3635C21.3383 7.00604 21.737 8.25846 20.9416 8.822L16.2843 12.1217C15.925 12.3763 15.7745 12.836 15.9137 13.2538L17.7028 18.6233C18.0083 19.5402 16.9645 20.3141 16.1759 19.7554L11.4211 16.3865C11.0748 16.1411 10.6113 16.1411 10.2649 16.3865L5.51011 19.7554C4.72151 20.3141 3.67776 19.5402 3.98327 18.6233L5.77233 13.2538C5.91154 12.836 5.76105 12.3763 5.40172 12.1217L0.744451 8.822C-0.0509434 8.25846 0.347763 7.00604 1.32256 7.00604H7.13316C7.56364 7.00604 7.94581 6.73055 8.08188 6.32215L9.8943 0.882554Z" fill="#070707"/>
</svg>
